<?xml version="1.0" encoding="UTF-8"?>
<svg version="1.1" xmlns="http://www.w3.org/2000/svg" width="128" height="128">
<path d="M0 0 C2.15881579 0.02400609 4.31642267 0.02048104 6.4753418 0.01391602 C18.23776678 0.06115126 18.23776678 0.06115126 21.56713867 2.33618164 C23.31713867 4.96118164 23.31713867 4.96118164 24.56713867 7.33618164 C25.24776367 6.34618164 25.92838867 5.35618164 26.62963867 4.33618164 C27.78979492 2.64868164 27.78979492 2.64868164 29.56713867 1.33618164 C36.42000422 0.15586804 41.16813845 3.38812697 46.87963867 6.71118164 C47.78520508 7.21907227 48.69077148 7.72696289 49.6237793 8.25024414 C56.21896473 11.98800769 56.21896473 11.98800769 58.56713867 14.33618164 C59.08305302 19.70169082 58.04994376 22.65704897 55.56713867 27.33618164 C54.7736241 29.98603939 54.17276898 32.63413875 53.56713867 35.33618164 C52.90713867 35.33618164 52.24713867 35.33618164 51.56713867 35.33618164 C51.96545898 36.17149414 51.96545898 36.17149414 52.37182617 37.02368164 C60.15396777 53.8376518 60.1659255 72.08776263 53.81713867 89.50024414 C46.91116216 105.16817835 34.9801825 116.61581027 19.57495117 123.71508789 C16.92635566 124.7317584 14.30084609 125.5807602 11.56713867 126.33618164 C10.79499023 126.55918945 10.0228418 126.78219727 9.22729492 127.01196289 C-7.14006261 131.01529327 -23.88194918 128.00058201 -38.59301758 120.08227539 C-51.72193729 112.00988596 -61.04719713 100.78243385 -66.43286133 86.33618164 C-66.75125977 85.55758789 -67.0696582 84.77899414 -67.39770508 83.97680664 C-69.64320247 77.47831648 -69.71096766 71.01605296 -69.74536133 64.21118164 C-69.75092041 63.28072021 -69.75647949 62.35025879 -69.76220703 61.39160156 C-69.70743025 56.11664389 -69.117709 51.37627847 -67.84912109 46.26098633 C-67.33949389 43.90444623 -67.3791911 41.90158231 -67.74536133 39.52368164 C-67.84461914 38.81598633 -67.94387695 38.10829102 -68.04614258 37.37915039 C-68.30206744 36.02714329 -68.60388271 34.68295713 -68.95239258 33.35180664 C-69.47273975 31.16888682 -69.70684018 29.140574 -69.80786133 26.89868164 C-69.8568457 26.1574707 -69.90583008 25.41625977 -69.95629883 24.65258789 C-69.13429727 21.01492429 -67.32213344 19.62098761 -64.43286133 17.33618164 C-61.73154168 16.42822243 -59.32305461 15.75388313 -56.55786133 15.21118164 C-47.38836184 13.28714678 -39.74700049 9.51105986 -31.51879883 5.05493164 C-21.48666627 0.43725565 -10.85695965 -0.12935418 0 0 Z " fill="#F1F1F1" transform="translate(69.432861328125,-0.336181640625)"/>
<path d="M0 0 C4.13453544 -0.38282736 7.59509865 -0.55367601 11 2 C12.75 4.625 12.75 4.625 14 7 C14.680625 6.01 15.36125 5.02 16.0625 4 C17.22265625 2.3125 17.22265625 2.3125 19 1 C25.85286555 -0.1803136 30.60099978 3.05194533 36.3125 6.375 C37.21806641 6.88289062 38.12363281 7.39078125 39.05664062 7.9140625 C45.65182605 11.65182605 45.65182605 11.65182605 48 14 C48.51591434 19.36550918 47.48280509 22.32086733 45 27 C44.65873937 28.41001485 44.34701042 29.82744789 44.0625 31.25 C43.711875 32.4875 43.36125 33.725 43 35 C42.0560437 35.46913818 42.0560437 35.46913818 41.09301758 35.94775391 C38.31135813 37.34620861 37.77028406 38.796274 36.44921875 41.5859375 C36.00199463 42.51132324 35.55477051 43.43670898 35.09399414 44.39013672 C34.62985107 45.3751416 34.16570801 46.36014648 33.6875 47.375 C32.70255308 49.38641309 31.71558738 51.39683893 30.7265625 53.40625 C29.47860756 55.96170784 28.23126491 58.51708445 27.00292969 61.08203125 C22.81988183 69.70628078 17.55313918 74.58715126 9 79 C8.34 79 7.68 79 7 79 C7 79.66 7 80.32 7 81 C4.515625 82.65625 4.515625 82.65625 1.25 84.5 C0.18265625 85.1084375 -0.8846875 85.716875 -1.984375 86.34375 C-4.30282334 87.61709468 -6.62120745 88.84524633 -9 90 C-9.495 86.535 -9.495 86.535 -10 83 C-11.19544434 83.59856812 -11.19544434 83.59856812 -12.41503906 84.20922852 C-15.37742906 85.68545886 -18.34469508 87.15081312 -21.31591797 88.60913086 C-22.60026161 89.24222376 -23.88251926 89.87956703 -25.16259766 90.52124023 C-27.00410232 91.4434212 -28.85259353 92.35000391 -30.703125 93.25390625 C-31.81333008 93.80377197 -32.92353516 94.3536377 -34.06738281 94.92016602 C-37.04362551 96.01606357 -38.14539467 96.25567557 -41 95 C-42 94 -42 94 -42.0625 91.4375 C-42.041875 90.633125 -42.02125 89.82875 -42 89 C-32.41104923 84.15013273 -22.79320688 79.42706612 -13 75 C-13.08378906 74.03578125 -13.16757813 73.0715625 -13.25390625 72.078125 C-13.40666016 70.18320313 -13.40666016 70.18320313 -13.5625 68.25 C-13.71912109 66.37054688 -13.71912109 66.37054688 -13.87890625 64.453125 C-13.98122665 61.53534313 -13.77723854 59.73211123 -13 57 C-13.99854004 57.39380859 -14.99708008 57.78761719 -16.02587891 58.19335938 C-19.74554677 59.65723268 -23.47033208 61.10767537 -27.19677734 62.55419922 C-28.80626941 63.18110172 -30.41436719 63.81159655 -32.02099609 64.44580078 C-34.33590715 65.35886477 -36.6555906 66.25872275 -38.9765625 67.15625 C-40.04567368 67.5827887 -40.04567368 67.5827887 -41.13638306 68.01794434 C-45.24361588 69.5894031 -48.60450563 70.31267539 -53 70 C-53.495 67.525 -53.495 67.525 -54 65 C-50.24236389 61.60388204 -45.90248211 60.47578477 -41.18359375 58.953125 C-39.43177366 58.35104706 -37.68115425 57.74546627 -35.93164062 57.13671875 C-33.18591353 56.1839242 -30.44061889 55.25098526 -27.66918945 54.37548828 C-17.53208448 51.64936723 -17.53208448 51.64936723 -9.87091064 45.16674805 C-8.26321807 40.83805436 -7.95844857 36.58637964 -8 32 C-8.96631348 32.33233643 -9.93262695 32.66467285 -10.92822266 33.00708008 C-18.64886468 35.65117302 -26.39766252 37.99283311 -34.27783203 40.11279297 C-40.54967164 41.82010459 -46.65335252 43.87482174 -52.765625 46.08203125 C-56.05520387 47.01566777 -58.60208447 47.32898893 -62 47 C-62.66 46.34 -63.32 45.68 -64 45 C-63.625 42.375 -63.625 42.375 -63 40 C-49.97687871 35.48982812 -36.87845968 31.43827274 -23.59667969 27.75390625 C-21.37280271 27.13317158 -19.15273316 26.49856515 -16.9375 25.84765625 C-15.13328763 25.32702582 -13.31634146 24.84607067 -11.484375 24.43359375 C-9.03583323 23.87814596 -9.03583323 23.87814596 -6 22 C-4.51391248 18.92943888 -4.06951752 15.86135157 -3.625 12.5 C-3.35160265 10.78040733 -3.07315947 9.06160738 -2.7890625 7.34375 C-2.62978271 6.20196289 -2.62978271 6.20196289 -2.46728516 5.03710938 C-2 3 -2 3 0 0 Z " fill="#D5D4E2" transform="translate(80,0)"/>
<path d="M0 0 C7.50135477 8.9373284 8.50788643 22.53797624 7.74609375 33.73046875 C5.75769471 51.30361705 -0.81990478 65.92960261 -14 78 C-21.54562704 83.89581653 -29.73995979 88.44111866 -39 91 C-39.77214844 91.22300781 -40.54429688 91.44601563 -41.33984375 91.67578125 C-57.70720128 95.67911163 -74.44908785 92.66440037 -89.16015625 84.74609375 C-102.28907596 76.67370432 -111.6143358 65.44625221 -117 51 C-117.31839844 50.22140625 -117.63679688 49.4428125 -117.96484375 48.640625 C-122.23201214 36.29140036 -121.86044587 19.09325223 -117 7 C-114.91041825 10.13437262 -113.95710764 12.80645286 -112.78515625 16.37890625 C-112.34729191 17.69467547 -111.90887275 19.01026016 -111.4699707 20.32568359 C-111.24056793 21.01716492 -111.01116516 21.70864624 -110.77481079 22.42108154 C-105.83846134 37.26121867 -100.21586918 51.60693239 -93.83520508 65.89404297 C-93 68 -93 68 -93 70 C-92.27683594 70.2784375 -91.55367187 70.556875 -90.80859375 70.84375 C-88.14192213 71.94157309 -85.62177726 73.17386581 -83.0625 74.5 C-69.38529325 81.37906848 -52.10085474 82.50888166 -37.4375 77.875 C-22.82094109 72.87351635 -11.87054044 63.52167448 -3 51 C-2.319375 50.113125 -1.63875 49.22625 -0.9375 48.3125 C0.4425733 44.90831918 -0.62074832 43.38968634 -2 40 C-2.80813387 38.63072361 -3.63670999 37.27339742 -4.48046875 35.92578125 C-11.52047507 24.24828023 -11.52047507 24.24828023 -10.56640625 18.29394531 C-8.34372171 11.71890103 -4.94321743 4.94321743 0 0 Z " fill="#D7D4DE" transform="translate(120,35)"/>
<path d="M0 0 C10 5.33333333 20 10.66666667 30 16 C27.98159253 22.47715287 25.03581292 28.41941321 21.98974609 34.45825195 C21.33347473 35.7706328 20.68780632 37.08837311 20.05322266 38.41137695 C14.9212979 49.10044308 9.39024663 55.69957496 -2 60 C-2 60.66 -2 61.32 -2 62 C-4.484375 63.65625 -4.484375 63.65625 -7.75 65.5 C-8.81734375 66.1084375 -9.8846875 66.716875 -10.984375 67.34375 C-13.30377189 68.61761565 -15.62965179 69.82696514 -18 71 C-20.59606326 43.35486295 -16.26418676 24.30253857 -1 1 C-0.67 0.67 -0.34 0.34 0 0 Z " fill="#55ABE4" transform="translate(89,19)"/>
<path d="M0 0 C2.05061972 3.07592957 2.97337209 5.62701227 4.109375 9.1328125 C4.53090609 10.41148883 4.95331106 11.68987733 5.37646484 12.96801758 C5.59953308 13.64474518 5.82260132 14.32147278 6.0524292 15.01870728 C10.30233918 27.85117454 15.04229644 40.39075149 20.375 52.8125 C20.66918823 53.49838196 20.96337646 54.18426392 21.26647949 54.89093018 C24.74361565 62.97273183 28.32468354 71.00623882 32 79 C17.26021662 73.31179758 7.92776106 61.34097972 1.44140625 47.375 C0.96574219 46.26125 0.49007813 45.1475 0 44 C-0.36222656 43.154375 -0.72445313 42.30875 -1.09765625 41.4375 C-5.30679327 29.22121397 -4.79604054 11.93300563 0 0 Z " fill="#FECC50" transform="translate(3,42)"/>
<path d="M0 0 C3.60459168 1.51153226 6.93735274 3.41127796 10.3125 5.375 C11.67084961 6.13683594 11.67084961 6.13683594 13.05664062 6.9140625 C19.65182605 10.65182605 19.65182605 10.65182605 22 13 C22.72729051 19.06075425 20.96053215 22.91158537 18 28 C13.73873112 26.41724299 9.79585299 24.35742977 5.8125 22.1875 C0.55005035 19.32393744 -4.72767005 16.65764597 -10.2421875 14.30078125 C-12 13 -12 13 -12.8203125 10.48046875 C-13.10452678 6.55707597 -10.9357099 4.4038853 -8.7421875 1.2421875 C-5.72982634 -0.90563951 -3.62630618 -0.47159844 0 0 Z " fill="#EF4880" transform="translate(106,1)"/>
<path d="M0 0 C6.97846364 8.31434096 8.65533668 21.43168569 7.84960938 31.96630859 C7.2640864 37.69704633 6.52632075 43.43586709 5 49 C4.34 49 3.68 49 3 49 C1.03427621 45.29553924 -0.92124833 41.58578692 -2.875 37.875 C-3.43058594 36.82828125 -3.98617187 35.7815625 -4.55859375 34.703125 C-5.09355469 33.68476562 -5.62851563 32.66640625 -6.1796875 31.6171875 C-6.67194824 30.68503418 -7.16420898 29.75288086 -7.67138672 28.79248047 C-11.31676593 21.1306195 -11.31676593 21.1306195 -10.32495117 17.59057617 C-9.90189697 16.83236572 -9.47884277 16.07415527 -9.04296875 15.29296875 C-8.58986328 14.45958984 -8.13675781 13.62621094 -7.66992188 12.76757812 C-7.18072266 11.91615234 -6.69152344 11.06472656 -6.1875 10.1875 C-5.47110352 8.88135742 -5.47110352 8.88135742 -4.74023438 7.54882812 C-1.27108286 1.27108286 -1.27108286 1.27108286 0 0 Z " fill="#FECC4F" transform="translate(120,35)"/>
<path d="M0 0 C1.32 0.99 2.64 1.98 4 3 C4.25 5.6875 4.25 5.6875 4 8 C4.515625 7.649375 5.03125 7.29875 5.5625 6.9375 C9.09964462 5.57705976 11.37061908 6.0278444 15 7 C17.80432309 9.58860593 18.91031421 10.99103488 19.25 14.8125 C19.1675 15.534375 19.085 16.25625 19 17 C19.556875 16.505 20.11375 16.01 20.6875 15.5 C23.38162983 13.75245633 24.85375007 13.73781251 28 14 C28.33 14.66 28.66 15.32 29 16 C27.21190303 17.17213045 25.41940875 18.33755526 23.625 19.5 C22.62726563 20.1496875 21.62953125 20.799375 20.6015625 21.46875 C18 23 18 23 16 23 C16 23.66 16 24.32 16 25 C13.515625 26.65625 13.515625 26.65625 10.25 28.5 C9.18265625 29.1084375 8.1153125 29.716875 7.015625 30.34375 C4.70422574 31.61322317 2.3586655 32.82066725 0 34 C0 22.78 0 11.56 0 0 Z " fill="#D2D2E0" transform="translate(71,56)"/>
<path d="M0 0 C2.64 1.32 5.28 2.64 8 4 C6.60865291 8.52865617 4.78860108 12.69077719 2.62890625 16.89453125 C2.30591049 17.52735519 1.98291473 18.16017914 1.65013123 18.81217957 C0.97081136 20.13858883 0.28913985 21.46379611 -0.39477539 22.7878418 C-1.4408254 24.81895693 -2.47151762 26.85741244 -3.50195312 28.89648438 C-4.16574103 30.18797617 -4.83042319 31.47900882 -5.49609375 32.76953125 C-6.39606079 34.52680542 -6.39606079 34.52680542 -7.31420898 36.31958008 C-9 39 -9 39 -12 40 C-12.78375 39.95875 -13.5675 39.9175 -14.375 39.875 C-17.62677493 40.02984643 -19.34927311 41.1823587 -22 43 C-21.67 41.68 -21.34 40.36 -21 39 C-20.34 39 -19.68 39 -19 39 C-18.72454346 38.11860352 -18.44908691 37.23720703 -18.1652832 36.32910156 C-17.09722873 33.2777731 -15.86691238 30.58535704 -14.35546875 27.734375 C-13.84306641 26.76113281 -13.33066406 25.78789063 -12.80273438 24.78515625 C-12.26970703 23.78355469 -11.73667969 22.78195313 -11.1875 21.75 C-10.13848082 19.76607004 -9.09029651 17.78169839 -8.04296875 15.796875 C-7.53556152 14.83587891 -7.0281543 13.87488281 -6.50537109 12.88476562 C-4.27908579 8.61850108 -2.13062728 4.31468349 0 0 Z " fill="#72B9EA" transform="translate(111,31)"/>
<path d="M0 0 C3.465 1.98 3.465 1.98 7 4 C6.42093366 9.17023517 3.94108819 13.2561992 1.5 17.75 C1.0580127 18.57604736 0.61602539 19.40209473 0.16064453 20.25317383 C-0.75996392 21.97362027 -1.68301231 23.69276316 -2.60839844 25.41064453 C-4.80172262 29.49176668 -6.96164119 33.59044202 -9.125 37.6875 C-10.41595499 40.12537781 -11.70799977 42.56267589 -13 45 C-13.33 45 -13.66 45 -14 45 C-14.28875 44.05125 -14.5775 43.1025 -14.875 42.125 C-15.76825109 38.94788422 -15.76825109 38.94788422 -18 37 C-17.66520244 32.61215974 -15.70289739 29.12757877 -13.69140625 25.2734375 C-13.36462387 24.64394196 -13.03784149 24.01444641 -12.70115662 23.36587524 C-12.0122677 22.0415479 -11.32040088 20.71876582 -10.62573242 19.39746094 C-9.56385172 17.37757122 -8.5106401 15.35335413 -7.45898438 13.328125 C-2.34699074 3.52048611 -2.34699074 3.52048611 0 0 Z " fill="#2578C5" transform="translate(89,19)"/>
<path d="M0 0 C-2.69056393 1.79370929 -3.95871954 2.37776125 -6.97729492 3.03735352 C-7.77209763 3.21416153 -8.56690033 3.39096954 -9.38578796 3.57313538 C-10.24203262 3.75653976 -11.09827728 3.93994415 -11.98046875 4.12890625 C-13.31069817 4.4207505 -13.31069817 4.4207505 -14.6678009 4.7184906 C-16.54585547 5.12909433 -18.42459577 5.53657224 -20.30395508 5.94116211 C-23.16072182 6.55672992 -26.01502934 7.18279532 -28.86914062 7.81054688 C-30.69777972 8.20896242 -32.52655177 8.60676828 -34.35546875 9.00390625 C-35.62465401 9.28204918 -35.62465401 9.28204918 -36.91947937 9.56581116 C-41.93607631 10.64057139 -46.89996559 11.43666885 -52 12 C-37.93851841 0.20567758 -17.92851436 -4.34206207 0 0 Z " fill="#FECD54" transform="translate(77,1)"/>
<path d="M0 0 C4.74870946 0.3768817 7.87812306 1.95068069 11.9375 4.3125 C11.9375 4.6425 11.9375 4.9725 11.9375 5.3125 C11.07125 5.456875 10.205 5.60125 9.3125 5.75 C4.43646095 8.00742548 2.57381654 11.76906086 -0.0625 16.3125 C-6.40594059 15.16584158 -6.40594059 15.16584158 -9.0625 12.3125 C-9.625 9.4375 -9.625 9.4375 -9.0625 6.3125 C-6.625 3.5 -6.625 3.5 -4.0625 1.3125 C-3.0625 0.3125 -3.0625 0.3125 0 0 Z " fill="#D03467" transform="translate(102.0625,0.6875)"/>
<path d="M0 0 C6.32884983 0.9041214 8.34285647 1.20930178 13 5 C14.16796875 7.13671875 14.16796875 7.13671875 15 9 C13.06537998 10.31674138 11.12720303 11.62825798 9.1875 12.9375 C8.10855469 13.66839844 7.02960938 14.39929688 5.91796875 15.15234375 C3 17 3 17 0 18 C0 12.06 0 6.12 0 0 Z " fill="#4A4F5F" transform="translate(71,72)"/>
<path d="M0 0 C1.32 0.99 2.64 1.98 4 3 C4.25 5.6875 4.25 5.6875 4 8 C5.98 7.34 7.96 6.68 10 6 C8.68 9.63 7.36 13.26 6 17 C4.02 16.67 2.04 16.34 0 16 C0 10.72 0 5.44 0 0 Z " fill="#C3C7D2" transform="translate(71,56)"/>
<path d="M0 0 C2.97 1.65 5.94 3.3 9 5 C8.01 5.66 7.02 6.32 6 7 C5.27617533 9.05925139 5.27617533 9.05925139 5 11 C-0.75 9.25 -0.75 9.25 -3 7 C-3.3125 4.5 -3.3125 4.5 -3 2 C-2.01 1.34 -1.02 0.68 0 0 Z " fill="#C8C6D1" transform="translate(92,12)"/>
<path d="M0 0 C1.65 0 3.3 0 5 0 C6.25955231 3.77865693 5.48087189 5.03411786 4.0625 8.6875 C3.68222656 9.68136719 3.30195312 10.67523438 2.91015625 11.69921875 C2.60980469 12.45847656 2.30945313 13.21773437 2 14 C1.67 14 1.34 14 1 14 C0.67 9.38 0.34 4.76 0 0 Z " fill="#363B4D" transform="translate(71,72)"/>
</svg>
